<?xml version="1.0" encoding="utf-8"?>
<!-- Generator: Adobe Illustrator 23.0.3, SVG Export Plug-In . SVG Version: 6.00 Build 0)  -->
<svg version="1.1" id="Layer_1" xmlns="http://www.w3.org/2000/svg" xmlns:xlink="http://www.w3.org/1999/xlink" x="0px" y="0px"
	 viewBox="0 0 612 792" style="enable-background:new 0 0 612 792;" xml:space="preserve">
<style type="text/css">
	.st0{fill:#231F20;}
	.st1{fill-rule:evenodd;clip-rule:evenodd;fill:#0055B8;}
	.st2{fill:none;}
	.st3{font-family:'MyriadPro-Regular';}
	.st4{font-size:12px;}
</style>
<g>
	<g>
		<g>
			<path class="st0" d="M468.98,363.94c-1.37-1.22-3.24-1.87-5.69-1.87c-1.59,0-3.17,0.29-4.68,0.86c-1.51,0.58-3.02,1.37-4.54,2.45
				l3.31-12.46h-13.9l-12.31,46.58l-2.38,9.07h2.38h11.52l8.57-32.62c0.65-2.3,1.15-3.82,1.66-4.61s1.22-1.15,2.09-1.15
				c0.87,0,1.37,0.36,1.44,1.08c0.07,0.79-0.29,2.52-0.94,5.18l-8.5,32.11h13.9l8.28-31.46c1.15-4.32,1.73-7.27,1.8-8.86
				C471.07,366.61,470.35,365.17,468.98,363.94z"/>
			<path class="st0" d="M417.21,389.79l-1.44,5.4c-0.58,2.38-1.22,3.96-1.73,4.82c-0.58,0.86-1.3,1.3-2.23,1.3
				c-0.87,0-1.37-0.43-1.51-1.22c-0.22-0.87-0.07-2.09,0.36-3.67l5.69-21.53c0.5-2.02,1.01-3.24,1.44-3.82
				c0.43-0.58,1.01-0.86,1.8-0.86c0.79,0,1.3,0.29,1.44,0.94c0.07,0.65-0.07,1.94-0.58,3.74l-1.37,5.26h12.1h1.01
				c1.08-4.25,1.58-7.56,1.37-9.94c-0.22-1.8-1.01-3.46-2.38-4.75c-0.36-0.36-0.79-0.72-1.22-1.08c-2.16-1.51-5.04-2.3-8.71-2.3
				c-3.6,0-6.91,0.79-9.86,2.38c-2.95,1.51-5.11,3.31-6.41,5.26c-1.3,1.94-2.45,4.9-3.46,8.78l-1.87,6.91l-1.58,6.05
				c-1.15,4.46-1.58,7.85-1.3,10.3c0.29,2.23,1.22,3.96,2.88,5.26c0.14,0.14,0.36,0.22,0.5,0.36c1.94,1.37,4.82,2.02,8.78,2.02
				c3.1,0,5.76-0.5,8.14-1.44c2.3-1.01,4.39-2.45,6.19-4.32c1.8-1.94,3.1-3.82,3.82-5.62c0.72-1.87,1.51-4.61,2.52-8.21H417.21z"/>
			<path class="st0" d="M390.57,395.62l6.41-24.41h2.66h1.08l1.95-7.2h-3.02h-0.72l0.72-2.81l1.15-4.39h-1.15H386.9l-1.95,7.2H382
				l-1.87,7.2h2.95l-4.46,16.85l-1.65,6.34c-1.22,4.54-1.87,7.42-1.95,8.64c-0.07,1.22,0.29,2.38,1.08,3.31
				c0.65,0.79,1.51,1.37,2.52,1.66c0.22,0.07,0.36,0.07,0.58,0.14c1.3,0.29,3.53,0.43,6.7,0.43h5.54l2.02-7.42
				c-2.3,0-3.53-0.14-3.74-0.5C389.49,400.3,389.78,398.65,390.57,395.62z"/>
			<polygon class="st0" points="379.56,362.93 378.62,362.93 365.3,362.93 356.66,395.48 353.2,408.58 356.66,408.58 367.53,408.58 
				378.62,366.46 			"/>
			<polygon class="st0" points="380.35,360.13 382.22,352.93 378.62,352.93 367.96,352.93 366.02,360.13 378.62,360.13 			"/>
			<path class="st0" d="M357.74,372.51c1.44-5.26,2.16-8.79,2.38-10.58c0.14-1.8-0.21-3.46-1.15-4.9c-0.5-0.86-1.3-1.58-2.3-2.16
				c-0.72-0.43-1.51-0.72-2.45-1.01c-2.3-0.65-6.98-0.94-13.97-0.94h-1.8h-9l-14.69,55.66h18.22c2.16,0,3.96-0.07,5.47-0.22
				c0.94-0.14,1.73-0.22,2.45-0.36c1.8-0.43,3.46-1.08,4.83-2.02c1.44-0.94,2.59-2.3,3.53-3.96c0.94-1.66,2.02-5.04,3.38-10.01
				l4.03-15.34L357.74,372.51z M344.13,369.34l-5.69,21.46l-0.07,0.14c-0.94,3.74-1.8,5.98-2.52,6.84
				c-0.65,0.79-2.09,1.22-4.18,1.22l6.77-25.42l2.95-11.16c1.58,0,2.59,0.14,3.1,0.5c0.5,0.29,0.72,0.86,0.65,1.51
				C345.14,365.17,344.78,366.82,344.13,369.34z"/>
			<path class="st0" d="M302.23,364.3c-2.09-1.44-5.11-2.23-9-2.23c-1.08,0-2.09,0.07-3.1,0.22c-2.09,0.29-4.03,0.86-5.9,1.66
				c-2.74,1.22-4.97,3.02-6.7,5.33c-1.65,2.23-3.02,5.4-4.1,9.43l-3.53,13.25c-0.86,3.46-1.3,5.98-1.3,7.78c0,1.8,0.43,3.38,1.3,4.9
				v0.07c0.86,1.44,2.3,2.59,4.32,3.38c2.02,0.86,4.54,1.3,7.42,1.3c3.02,0,5.69-0.43,7.92-1.3c0.14-0.07,0.36-0.14,0.58-0.22
				c2.02-0.86,3.81-2.09,5.4-3.67c1.8-1.73,3.03-3.31,3.74-4.82c0.79-1.51,1.51-3.67,2.3-6.48l0.86-3.38h-12.31h-0.87l-1.58,6.05
				c-0.58,2.23-1.15,3.74-1.73,4.54c-0.57,0.79-1.37,1.22-2.45,1.22c-0.86,0-1.3-0.29-1.44-0.94c-0.14-0.58,0-1.87,0.58-3.96
				l2.59-9.86h4.9h13.1l1.58-6.05c1.22-4.46,1.58-7.85,1.22-10.3C305.68,367.76,304.39,365.81,302.23,364.3z M292.15,375.75
				l-0.87,3.38h-1.15h-2.88l0.86-3.38c0.65-2.52,1.22-4.1,1.58-4.68c0.14-0.22,0.22-0.36,0.43-0.43c0.36-0.29,0.94-0.43,1.58-0.43
				c0.79,0,1.22,0.29,1.29,1.01C293.08,371.93,292.8,373.45,292.15,375.75z"/>
			<path class="st0" d="M269.9,375.39c0.86-3.38,1.3-5.76,1.37-7.13c0.07-1.37-0.43-2.59-1.37-3.6c-0.14-0.29-0.36-0.5-0.65-0.72
				c-1.37-1.22-3.24-1.87-5.69-1.87c-1.58,0-3.17,0.29-4.68,0.86c-1.51,0.58-3.02,1.37-4.54,2.45l3.31-12.46h-13.9l-8.78,33.26
				l-5.9,22.39h5.9h7.99l8.57-32.62c0.65-2.3,1.22-3.82,1.73-4.61c0.5-0.79,1.15-1.15,2.02-1.15c0.94,0,1.37,0.36,1.44,1.08
				c0.07,0.79-0.22,2.52-0.94,5.18l-8.5,32.11h13.9l8.28-31.46C269.68,376.47,269.83,375.89,269.9,375.39z"/>
			<polygon class="st0" points="234.98,364.01 237.93,364.01 240.88,352.93 234.98,352.93 209.27,352.93 206.32,364.01 
				214.89,364.01 203.08,408.58 217.55,408.58 229.36,364.01 			"/>
			<polygon class="st0" points="156.71,352.93 152.03,352.93 142.24,352.93 127.48,408.58 141.95,408.58 152.03,370.49 			"/>
			<path class="st0" d="M187.67,363.8c-1.22-1.15-3.02-1.73-5.4-1.73c-1.87,0-3.67,0.43-5.4,1.3c-1.66,0.79-3.24,2.09-4.68,3.74
				l1.37-4.18h-14.11l-7.42,28.01l-4.68,17.64h4.68h9.22l8.21-30.89c0.86-3.46,1.58-5.54,2.02-6.34c0.43-0.79,1.15-1.15,2.16-1.15
				c0.94,0,1.44,0.29,1.44,1.01c0.07,0.72-0.36,2.59-1.22,5.76l-8.35,31.61h13.9l8.5-32.04c1.01-3.96,1.58-6.77,1.58-8.5
				C189.47,366.32,188.9,364.88,187.67,363.8z"/>
		</g>
		<g>
			<path class="st1" d="M504.26,353.36c-1.87-1.08-3.02-1.44-4.97-2.23c-42.27-13.82-99.72-24.05-144.22-27.72
				c-51.12-4.25-103.1-4.39-143.5-0.36c-236.16,23.4-90.79,140.76,71.42,144.5c-63.97-13.4-111.77-34.84-134.06-56.47h-1.59
				c-0.78,0-1.51-0.36-1.98-0.98c-0.47-0.62-0.63-1.42-0.44-2.17l0.22-0.83c-0.06-0.07-0.12-0.13-0.18-0.2l-0.61,2.31
				c-0.29,1.1-1.28,1.86-2.42,1.86h-14.47c-0.78,0-1.51-0.36-1.98-0.98c-0.47-0.62-0.63-1.42-0.44-2.17l14.76-55.66
				c0.29-1.1,1.28-1.86,2.42-1.86h9.79h4.68c0.78,0,1.51,0.36,1.98,0.98c0.47,0.62,0.63,1.42,0.43,2.17l-1.12,4.22
				C201.27,336.46,308.61,328.2,504.26,353.36z"/>
		</g>
	</g>
	<g>
		<rect x="294.45" y="424.64" class="st0" width="5.9" height="22.75"/>
		<polygon class="st0" points="311.01,434.86 307.7,424.64 302.73,424.64 302.73,447.39 307.7,447.39 307.7,437.02 310.8,447.39 
			315.98,447.39 315.98,424.64 311.01,424.64 		"/>
		<path class="st0" d="M329.08,425.21c-1.15-0.72-2.59-1.08-4.32-1.08c-1.73,0-3.17,0.43-4.25,1.22c-1.15,0.79-1.8,1.73-2.09,2.74
			c-0.22,0.94-0.29,2.52-0.29,4.68v6.77c0,1.58,0,2.81,0.14,3.53c0.07,0.79,0.36,1.58,0.87,2.3c0.43,0.72,1.08,1.3,1.94,1.8
			c0.86,0.43,1.8,0.72,2.81,0.72c0.79,0,1.58-0.22,2.16-0.58c0.65-0.36,1.15-0.86,1.51-1.58l0.58,1.66h3.74v-12.24h-6.98v3.46h1.22
			v2.74c0,1.01-0.07,1.73-0.21,2.09c-0.14,0.43-0.5,0.58-0.94,0.58c-0.36,0-0.65-0.14-0.72-0.5c-0.14-0.29-0.21-1.01-0.21-2.02
			v-10.94c0-1.15,0.07-1.87,0.21-2.16c0.07-0.29,0.36-0.43,0.72-0.43c0.43,0,0.65,0.22,0.79,0.5c0.14,0.36,0.14,1.15,0.14,2.45v2.09
			h5.97v-1.01c0-1.87-0.21-3.24-0.57-4.25C331.03,426.73,330.23,425.93,329.08,425.21z"/>
		<path class="st0" d="M285.88,440.77l-0.65-8.64c-0.36-4.32-0.58-6.84-0.65-7.49h-6.19c-0.87,6.41-1.44,11.59-1.66,15.55
			l-0.58-7.63l-0.65-7.92h-5.76l2.66,22.75h7.34c0.87-6.05,1.44-10.01,1.66-11.95c0.5,4.46,1.15,8.42,1.8,11.95h7.42l2.59-22.75
			h-5.76C286.75,429.89,286.17,435.29,285.88,440.77z"/>
		<path class="st0" d="M267.52,426.51c-0.58-0.79-1.37-1.37-2.3-1.8c-1.01-0.36-2.09-0.58-3.31-0.58c-1.3,0-2.38,0.22-3.38,0.65
			c-0.94,0.43-1.73,1.01-2.3,1.8c-0.58,0.79-0.86,1.66-1.01,2.59c-0.07,0.94-0.14,2.59-0.14,4.9v3.89c0,2.3,0.07,3.96,0.14,4.9
			c0.14,0.94,0.5,1.8,1.08,2.59c0.58,0.79,1.37,1.44,2.3,1.8c1.01,0.43,2.09,0.65,3.31,0.65c1.3,0,2.45-0.22,3.38-0.65
			c0.94-0.43,1.73-1.01,2.3-1.8c0.58-0.79,0.87-1.66,1.01-2.66c0.07-0.94,0.14-2.52,0.14-4.82v-3.89c0-2.38-0.07-4.03-0.14-4.97
			C268.46,428.17,268.1,427.3,267.52,426.51z M262.84,440.91c0,1.37-0.07,2.23-0.14,2.59c-0.14,0.36-0.36,0.5-0.79,0.5
			c-0.43,0-0.65-0.14-0.79-0.43c-0.07-0.36-0.14-1.15-0.14-2.45v-10.66c0-1.15,0.07-1.87,0.29-2.16c0.14-0.22,0.36-0.29,0.65-0.36
			c0.43,0,0.65,0.22,0.72,0.5c0.14,0.29,0.21,0.94,0.21,2.02V440.91z"/>
		<polygon class="st0" points="240.95,429.18 244.41,429.18 244.41,447.39 250.39,447.39 250.39,429.18 253.84,429.18 
			253.84,424.64 240.95,424.64 		"/>
		<path class="st0" d="M350.9,426.08c-0.43-0.5-1.08-0.86-1.95-1.08c-0.72-0.22-1.65-0.36-2.81-0.36c-0.29,0-0.65,0-0.94,0h-5.97
			v22.75h5.9v-9.14h1.01h0.65c1.22,0,2.3-0.22,3.09-0.58c0.79-0.36,1.37-0.87,1.66-1.51c0.29-0.65,0.43-1.73,0.43-3.17v-2.02
			c0-1.44-0.07-2.45-0.22-3.17C351.62,427.16,351.33,426.58,350.9,426.08z M347.08,432.27c0,0.79-0.14,1.37-0.36,1.66
			c-0.14,0.14-0.36,0.29-0.57,0.36c-0.22,0-0.36,0-0.58,0c-0.07,0-0.22,0-0.43,0v-5.76c0.43,0,0.72,0,1.01,0.07
			c0.21,0.07,0.43,0.14,0.57,0.29c0.22,0.22,0.36,0.72,0.36,1.51V432.27z"/>
		<path class="st0" d="M381.57,426.51c-0.65-0.79-1.37-1.37-2.38-1.8c-0.94-0.36-2.09-0.58-3.31-0.58c-1.22,0-2.38,0.22-3.31,0.65
			c-1.01,0.43-1.8,1.01-2.3,1.8c-0.58,0.79-0.94,1.66-1.08,2.59c-0.07,0.94-0.14,2.59-0.14,4.9v3.89c0,2.3,0.07,3.96,0.21,4.9
			c0.07,0.94,0.43,1.8,1.01,2.59c0.58,0.79,1.37,1.44,2.38,1.8c0.94,0.43,2.02,0.65,3.24,0.65c1.29,0,2.45-0.22,3.38-0.65
			c1.01-0.43,1.73-1.01,2.3-1.8c0.58-0.79,0.94-1.66,1.01-2.66c0.14-0.94,0.22-2.52,0.22-4.82v-3.89c0-2.38-0.07-4.03-0.22-4.97
			C382.51,428.17,382.15,427.3,381.57,426.51z M376.82,440.91c0,1.37-0.07,2.23-0.14,2.59c-0.14,0.36-0.36,0.5-0.79,0.5
			c-0.36,0-0.65-0.14-0.72-0.43c-0.14-0.36-0.22-1.15-0.22-2.45v-10.66c0-1.15,0.14-1.87,0.29-2.16c0.14-0.22,0.36-0.29,0.65-0.36
			h0.07c0.36,0,0.58,0.22,0.72,0.5c0.07,0.29,0.14,0.94,0.14,2.02V440.91z"/>
		<path class="st0" d="M457.89,436.73c-0.65-1.01-2.3-2.3-4.97-3.89c-0.94-0.58-1.44-1.01-1.66-1.37c-0.21-0.43-0.29-1.01-0.29-1.73
			c0-0.58,0.07-1.01,0.21-1.3c0.22-0.36,0.5-0.5,0.87-0.5c0.29,0,0.5,0.14,0.65,0.36c0.14,0.22,0.22,0.72,0.22,1.51v1.66h5.54v-0.86
			c0-1.8-0.22-3.1-0.58-3.89c-0.36-0.72-1.01-1.37-2.16-1.87c-1.08-0.5-2.38-0.72-3.89-0.72c-1.44,0-2.59,0.22-3.6,0.65
			c-1.01,0.5-1.73,1.08-2.16,1.94c-0.43,0.79-0.65,2.09-0.65,3.82c0,1.22,0.14,2.16,0.43,2.95c0.29,0.79,0.72,1.44,1.22,1.87
			c0.43,0.43,1.44,1.15,2.88,2.09c1.51,1.01,2.45,1.66,2.81,2.09c0.36,0.43,0.5,1.3,0.5,2.59c0,0.65-0.07,1.08-0.29,1.44
			c-0.14,0.29-0.43,0.43-0.87,0.43c-0.36,0-0.65-0.14-0.79-0.36c-0.14-0.22-0.29-0.79-0.29-1.66v-2.74h-5.47v1.44
			c0,1.73,0.14,3.02,0.5,3.96c0.36,0.94,1.08,1.73,2.23,2.3c1.08,0.58,2.45,0.94,4.03,0.94c1.44,0,2.74-0.29,3.82-0.79
			c1.08-0.5,1.8-1.15,2.23-1.94c0.36-0.79,0.58-1.94,0.58-3.6C458.97,439.33,458.61,437.74,457.89,436.73z"/>
		<path class="st0" d="M408.43,441.41c0,1.08-0.07,1.8-0.14,2.16c-0.14,0.29-0.36,0.43-0.72,0.43c-0.36,0-0.58-0.14-0.65-0.43
			c-0.14-0.29-0.14-0.86-0.14-1.87v-17.06h-5.98v13.46c0,2.52,0.07,4.25,0.14,5.04c0.07,0.79,0.43,1.58,0.94,2.3
			c0.5,0.72,1.29,1.3,2.3,1.73c1.08,0.43,2.23,0.72,3.6,0.72c1.22,0,2.3-0.22,3.24-0.58c0.87-0.43,1.58-0.94,2.16-1.73
			c0.58-0.72,0.94-1.44,1.01-2.16c0.14-0.65,0.14-1.87,0.14-3.6v-15.19h-5.9V441.41z"/>
		<path class="st0" d="M427.72,425.14c-1.15-0.65-2.59-1.01-4.32-1.01c-1.3,0-2.45,0.22-3.46,0.65c-0.94,0.43-1.73,1.01-2.3,1.8
			c-0.58,0.72-0.87,1.51-1.01,2.38c-0.07,0.79-0.14,2.02-0.14,3.67v6.7c0,2.23,0.14,3.89,0.58,4.97c0.36,1.15,1.08,2.02,2.23,2.59
			c1.08,0.65,2.52,1.01,4.25,1.01c1.65,0,3.1-0.43,4.25-1.15c1.15-0.72,1.87-1.58,2.16-2.59c0.36-1.01,0.51-2.66,0.51-4.97v-0.94
			h-5.9v2.88c0,1.22-0.07,2.02-0.22,2.38c-0.14,0.36-0.43,0.5-0.86,0.5c-0.43,0-0.72-0.14-0.87-0.5c-0.14-0.36-0.21-1.08-0.21-2.16
			v-10.58c0-1.15,0.07-1.87,0.21-2.23c0.14-0.36,0.43-0.58,0.94-0.58c0.43,0,0.72,0.14,0.79,0.43c0.14,0.29,0.22,1.01,0.22,2.16
			v3.96h5.9v-2.16c0-2.09-0.14-3.67-0.51-4.68C429.59,426.65,428.88,425.79,427.72,425.14z"/>
		<path class="st0" d="M397.48,426.29c-0.5-0.58-1.3-1.01-2.3-1.3c-0.65-0.14-1.8-0.29-3.38-0.36c-0.65,0-1.51,0-2.38,0h-4.46v22.75
			h6.84h0.65c1.44,0,2.45-0.07,3.17-0.21c0.72-0.14,1.3-0.43,1.8-0.86c0.43-0.36,0.79-0.94,1.01-1.58c0.14-0.72,0.29-2.09,0.29-4.1
			v-7.99c0-2.16-0.07-3.6-0.21-4.32C398.35,427.59,398.06,426.87,397.48,426.29z M392.73,440.19c0,1.51-0.07,2.45-0.29,2.81
			c-0.07,0.14-0.29,0.29-0.65,0.36c-0.22,0.07-0.5,0.14-0.87,0.14v-14.98c0.36,0,0.65,0,0.87,0.07c0.21,0,0.36,0.07,0.43,0.14
			c0.21,0.07,0.36,0.29,0.43,0.58c0.07,0.29,0.07,1.01,0.07,2.02V440.19z"/>
		<polygon class="st0" points="431.61,429.18 435.07,429.18 435.07,447.39 441.04,447.39 441.04,429.18 444.57,429.18 
			444.57,424.64 431.61,424.64 		"/>
		<path class="st0" d="M366.95,430.83c0-1.94-0.36-3.38-0.94-4.25c-0.65-0.86-1.44-1.44-2.45-1.66c-0.65-0.14-1.66-0.22-3.02-0.29
			c-0.79,0-1.66,0-2.66,0h-4.18v22.75h5.9V437.1c0.36,0,0.72,0.07,0.94,0.07c0.29,0.07,0.5,0.22,0.57,0.36
			c0.22,0.29,0.29,1.08,0.29,2.3v7.56h5.54v-6.05c0-1.8-0.07-2.95-0.14-3.31c-0.14-0.43-0.36-0.86-0.79-1.37
			c-0.36-0.5-1.15-0.86-2.38-1.15c1.29-0.14,2.16-0.5,2.66-1.08C366.74,433.78,366.95,432.63,366.95,430.83z M361.41,431.48
			c0,1.01-0.14,1.66-0.36,1.8c-0.14,0.07-0.29,0.14-0.5,0.22c-0.29,0.07-0.58,0.07-0.94,0.07v-5.04c0.36,0,0.65,0,0.94,0.07
			c0.21,0.07,0.36,0.14,0.5,0.22c0.29,0.29,0.36,0.72,0.36,1.44V431.48z"/>
	</g>
	<path class="st1" d="M292.07,460.21c1.01,0.36,1.66,0.5,2.81,0.72c22.97,4.46,54.36,7.34,78.7,7.92
		c27.94,0.72,54.21-0.58,76.32-2.74c85.68-8.64,124.34-46.58-34.27-53.21c-1.58,0-1.8,0-2.66,0.36
		C525.5,425.57,541.27,472.81,292.07,460.21z"/>
	<rect x="473.99" y="355.03" class="st2" width="19" height="20.81"/>
	<text transform="matrix(1 0 0 1 473.9868 363.5508)" class="st0 st3 st4">TM</text>
</g>
</svg>
